<?xml version="1.0" encoding="UTF-8" standalone="no"?>
<svg xmlns:dc="http://purl.org/dc/elements/1.1/"
   xmlns:cc="http://creativecommons.org/ns#"
   xmlns:rdf="http://www.w3.org/1999/02/22-rdf-syntax-ns#"
   xmlns:svg="http://www.w3.org/2000/svg"
   xmlns="http://www.w3.org/2000/svg" width="13.229167mm" height="52.916668mm" viewBox="0 0 13.229167 52.916668" version="1.1" id="svg8">
   <defs id="defs2" />
   <defs>
      <filter id="blur" x="0" y="0">
         <feGaussianBlur in="SourceGraphic" stdDeviation="4" />
      </filter>
   </defs>
   <metadata id="metadata5">
      <rdf:RDF>
         <cc:Work rdf:about="">
            <dc:format>image/svg+xml</dc:format>
            <dc:type rdf:resource="http://purl.org/dc/dcmitype/StillImage" />
            <dc:title></dc:title>
         </cc:Work>
      </rdf:RDF>
   </metadata>
   <g id="layer1" style="opacity:1" transform="translate(-58.721997,-6.9282592)">
      <g id="g901" transform="matrix(0.24943246,0,0,0.25694234,44.074825,5.1480961)" filter="url(#blur)" opacity=".5">
         <path id="rect894" style="opacity:1;fill:#000000;stroke-width:1;stroke-linecap:round;stroke-linejoin:round;stroke-miterlimit:10" d="m 85.167155,194.61653 a 6.3463164,6.3463164 0 0 0 -6.273001,6.34691 v 11.91245 h 12.69276 v -11.91245 a 6.3463164,6.3463164 0 0 0 -6.34638,-6.34691 6.3463164,6.3463164 0 0 0 -0.07338,0 z" />
         <path id="rect833" style="opacity:1;fill:#000000;stroke-width:3.2967;stroke-linecap:round;stroke-linejoin:round;stroke-miterlimit:10" d="M 399.85938,280.5918 H 244.47852 v 523.97851 h 53.70507 v -45.02343 a 23.986078,23.986078 0 0 1 23.70899,-23.98829 23.986078,23.986078 0 0 1 0.27734,0 23.986078,23.986078 0 0 1 23.98633,23.98829 v 45.02343 h 53.70313 z m -112.70313,14.64453 a 30.394521,30.394521 0 0 1 0.35352,0 30.394521,30.394521 0 0 1 30.39453,30.39648 v 57.05274 h -60.79102 v -57.05274 a 30.394521,30.394521 0 0 1 30.04297,-30.39648 z m 69.32227,0 a 30.394521,30.394521 0 0 1 0.35156,0 30.394521,30.394521 0 0 1 30.39648,30.39648 v 57.05274 h -60.79101 v -57.05274 a 30.394521,30.394521 0 0 1 30.04297,-30.39648 z" transform="scale(0.26458333)" />
         <path id="path885" style="opacity:1;fill:#000000;stroke-width:3.2967;stroke-linecap:round;stroke-linejoin:round;stroke-miterlimit:10" d="M 322.16992,26.185547 221.94141,280.5918 h 22.53711 155.38086 22.5371 z" transform="scale(0.26458333)" />
      </g>
   </g>
</svg>
